<svg width="345" height="224" viewBox="0 0 345 224" fill="none" xmlns="http://www.w3.org/2000/svg" xmlns:xlink="http://www.w3.org/1999/xlink">
<g opacity="0.8">
<mask id="path-1-inside-1_171_47" fill="white">
<path d="M47.5738 111.012C58.076 111.012 68.148 107.114 75.5742 100.175C83.0004 93.236 87.1724 83.8247 87.1724 74.0115C87.1724 64.1982 83.0004 54.787 75.5742 47.848C68.148 40.909 58.076 37.0107 47.5738 37.0107L47.5738 74.0115L47.5738 111.012Z"/>
</mask>
<path d="M47.5738 111.012C58.076 111.012 68.148 107.114 75.5742 100.175C83.0004 93.236 87.1724 83.8247 87.1724 74.0115C87.1724 64.1982 83.0004 54.787 75.5742 47.848C68.148 40.909 58.076 37.0107 47.5738 37.0107L47.5738 74.0115L47.5738 111.012Z" fill="#3F3398" stroke-width="2" mask="url(#path-1-inside-1_171_47)"/>
<mask id="path-2-inside-2_171_47" fill="white">
<path d="M213.386 111.012C223.888 111.012 233.961 107.114 241.387 100.175C248.813 93.236 252.985 83.8247 252.985 74.0115C252.985 64.1982 248.813 54.787 241.387 47.848C233.961 40.909 223.888 37.0107 213.386 37.0107L213.386 74.0115L213.386 111.012Z"/>
</mask>
<path d="M213.386 111.012C223.888 111.012 233.961 107.114 241.387 100.175C248.813 93.236 252.985 83.8247 252.985 74.0115C252.985 64.1982 248.813 54.787 241.387 47.848C233.961 40.909 223.888 37.0107 213.386 37.0107L213.386 74.0115L213.386 111.012Z" fill="#9E9EC6" stroke-width="2" mask="url(#path-2-inside-2_171_47)"/>
<mask id="path-3-inside-3_171_47" fill="white">
<path d="M298.768 37.0099C298.768 41.8689 297.711 46.6804 295.659 51.1695C293.607 55.6587 290.599 59.7376 286.807 63.1734C283.015 66.6093 278.513 69.3347 273.559 71.1942C268.605 73.0536 263.294 74.0107 257.932 74.0107L257.932 37.0099H298.768Z"/>
</mask>
<path d="M298.768 37.0099C298.768 41.8689 297.711 46.6804 295.659 51.1695C293.607 55.6587 290.599 59.7376 286.807 63.1734C283.015 66.6093 278.513 69.3347 273.559 71.1942C268.605 73.0536 263.294 74.0107 257.932 74.0107L257.932 37.0099H298.768Z" fill="#000B3C" stroke-width="2" mask="url(#path-3-inside-3_171_47)"/>
<mask id="path-4-inside-4_171_47" fill="white">
<path d="M257.764 74.0257C263.115 74.0236 268.415 74.9783 273.359 76.8354C278.304 78.6925 282.798 81.4156 286.584 84.8492C290.37 88.2828 293.373 92.3597 295.423 96.8471C297.473 101.334 298.53 106.144 298.532 111.002L257.783 111.018L257.764 74.0257Z"/>
</mask>
<path d="M257.764 74.0257C263.115 74.0236 268.415 74.9783 273.359 76.8354C278.304 78.6925 282.798 81.4156 286.584 84.8492C290.37 88.2828 293.373 92.3597 295.423 96.8471C297.473 101.334 298.53 106.144 298.532 111.002L257.783 111.018L257.764 74.0257Z" fill="#3F3398" stroke-width="2" mask="url(#path-4-inside-4_171_47)"/>
<path d="M331.756 37.5117C338.549 37.5117 344.057 43.0185 344.057 49.8115V73.5127H312.808C306.015 73.5126 300.508 68.0057 300.508 61.2129V37.5117H331.756Z" fill="#3F3398"/>
<path d="M31.748 37.5117C38.5411 37.5117 44.0487 43.0185 44.0488 49.8115V73.5127H12.7998C6.00693 73.5126 0.500223 68.0057 0.5 61.2129V37.5117H31.748Z" fill="#9E9EC6"/>
<path d="M300.508 86.8301C300.508 80.0372 306.015 74.5304 312.808 74.5303H344.057V98.2314C344.057 105.024 338.549 110.531 331.756 110.531H300.508V86.8301Z" fill="#000064"/>
<path d="M0.5 86.8301C0.500229 80.0372 6.00693 74.5304 12.7998 74.5303H44.0488V98.2314C44.0487 105.024 38.5411 110.531 31.748 110.531H0.5L0.5 86.8301Z" fill="#000064"/>
<mask id="path-9-inside-5_171_47" fill="white">
<path d="M213.386 111.012C202.884 111.012 192.812 107.114 185.386 100.175C177.96 93.236 173.788 83.8247 173.788 74.0115C173.788 64.1982 177.96 54.787 185.386 47.848C192.812 40.909 202.884 37.0107 213.386 37.0107L213.386 74.0115L213.386 111.012Z"/>
</mask>
<path d="M213.386 111.012C202.884 111.012 192.812 107.114 185.386 100.175C177.96 93.236 173.788 83.8247 173.788 74.0115C173.788 64.1982 177.96 54.787 185.386 47.848C192.812 40.909 202.884 37.0107 213.386 37.0107L213.386 74.0115L213.386 111.012Z" fill="#0E0076" stroke-width="2" mask="url(#path-9-inside-5_171_47)"/>
<mask id="path-10-inside-6_171_47" fill="white">
<path d="M89.6461 111.012C94.8462 111.012 99.9955 110.055 104.8 108.196C109.604 106.336 113.969 103.611 117.646 100.175C121.324 96.7391 124.24 92.6602 126.23 88.171C128.22 83.6819 129.245 78.8705 129.245 74.0115L89.6461 74.0115L89.6461 111.012Z"/>
</mask>
<path d="M89.6461 111.012C94.8462 111.012 99.9955 110.055 104.8 108.196C109.604 106.336 113.969 103.611 117.646 100.175C121.324 96.7391 124.24 92.6602 126.23 88.171C128.22 83.6819 129.245 78.8705 129.245 74.0115L89.6461 74.0115L89.6461 111.012Z" fill="#9E9EC6" stroke-width="2" mask="url(#path-10-inside-6_171_47)"/>
<mask id="path-11-inside-7_171_47" fill="white">
<path d="M129.219 74.0978C124.041 74.1127 118.909 73.1705 114.118 71.3251C109.326 69.4797 104.969 66.7673 101.295 63.3427C97.6199 59.9181 94.7001 55.8484 92.7017 51.3659C90.7033 46.8834 89.6655 42.076 89.6475 37.2181L129.083 37.1053L129.219 74.0978Z"/>
</mask>
<path d="M129.219 74.0978C124.041 74.1127 118.909 73.1705 114.118 71.3251C109.326 69.4797 104.969 66.7673 101.295 63.3427C97.6199 59.9181 94.7001 55.8484 92.7017 51.3659C90.7033 46.8834 89.6655 42.076 89.6475 37.2181L129.083 37.1053L129.219 74.0978Z" fill="#0E0076" stroke-width="2" mask="url(#path-11-inside-7_171_47)"/>
<mask id="path-12-inside-8_171_47" fill="white">
<path d="M129.243 73.9834C129.243 69.4102 130.331 64.8818 132.445 60.6567C134.56 56.4317 137.659 52.5927 141.566 49.3589C145.473 46.1252 150.111 43.5601 155.215 41.81C160.32 40.0599 165.791 39.1591 171.316 39.1591L171.316 73.9834H129.243Z"/>
</mask>
<path d="M129.243 73.9834C129.243 69.4102 130.331 64.8818 132.445 60.6567C134.56 56.4317 137.659 52.5927 141.566 49.3589C145.473 46.1252 150.111 43.5601 155.215 41.81C160.32 40.0599 165.791 39.1591 171.316 39.1591L171.316 73.9834H129.243Z" fill="#9E9EC6" stroke-width="2" mask="url(#path-12-inside-8_171_47)"/>
<mask id="path-13-inside-9_171_47" fill="white">
<path d="M129.233 74.0248C134.434 74.0248 139.583 74.9819 144.387 76.8413C149.191 78.7008 153.557 81.4262 157.234 84.8621C160.911 88.2979 163.828 92.3768 165.818 96.866C167.808 101.355 168.832 106.167 168.832 111.026L129.233 111.026V74.0248Z"/>
</mask>
<path d="M129.233 74.0248C134.434 74.0248 139.583 74.9819 144.387 76.8413C149.191 78.7008 153.557 81.4262 157.234 84.8621C160.911 88.2979 163.828 92.3768 165.818 96.866C167.808 101.355 168.832 106.167 168.832 111.026L129.233 111.026V74.0248Z" fill="#0E0076" stroke-width="2" mask="url(#path-13-inside-9_171_47)"/>
</g>
<g opacity="0.8">
<mask id="path-14-inside-10_171_47" fill="white">
<path d="M47.5767 187.043C58.0789 187.043 68.151 183.145 75.5771 176.206C83.0033 169.267 87.1753 159.856 87.1753 150.043C87.1753 140.229 83.0033 130.818 75.5771 123.879C68.151 116.94 58.0789 113.042 47.5767 113.042L47.5767 150.043L47.5767 187.043Z"/>
</mask>
<path d="M47.5767 187.043C58.0789 187.043 68.151 183.145 75.5771 176.206C83.0033 169.267 87.1753 159.856 87.1753 150.043C87.1753 140.229 83.0033 130.818 75.5771 123.879C68.151 116.94 58.0789 113.042 47.5767 113.042L47.5767 150.043L47.5767 187.043Z" fill="#3F3398" stroke-width="2" mask="url(#path-14-inside-10_171_47)"/>
<mask id="path-15-inside-11_171_47" fill="white">
<path d="M213.394 187.043C223.896 187.043 233.968 183.145 241.395 176.206C248.821 169.267 252.993 159.856 252.993 150.043C252.993 140.229 248.821 130.818 241.395 123.879C233.968 116.94 223.896 113.042 213.394 113.042L213.394 150.043L213.394 187.043Z"/>
</mask>
<path d="M213.394 187.043C223.896 187.043 233.968 183.145 241.395 176.206C248.821 169.267 252.993 159.856 252.993 150.043C252.993 140.229 248.821 130.818 241.395 123.879C233.968 116.94 223.896 113.042 213.394 113.042L213.394 150.043L213.394 187.043Z" fill="#9E9EC6" stroke-width="2" mask="url(#path-15-inside-11_171_47)"/>
<mask id="path-16-inside-12_171_47" fill="white">
<path d="M298.772 113.037C298.772 117.896 297.715 122.708 295.663 127.197C293.611 131.686 290.603 135.765 286.811 139.201C283.019 142.637 278.517 145.362 273.563 147.222C268.608 149.081 263.298 150.038 257.936 150.038L257.936 113.037H298.772Z"/>
</mask>
<path d="M298.772 113.037C298.772 117.896 297.715 122.708 295.663 127.197C293.611 131.686 290.603 135.765 286.811 139.201C283.019 142.637 278.517 145.362 273.563 147.222C268.608 149.081 263.298 150.038 257.936 150.038L257.936 113.037H298.772Z" fill="#000B3C" stroke-width="2" mask="url(#path-16-inside-12_171_47)"/>
<mask id="path-17-inside-13_171_47" fill="white">
<path d="M257.767 150.045C263.118 150.043 268.417 150.998 273.362 152.855C278.307 154.712 282.801 157.435 286.587 160.869C290.372 164.302 293.376 168.379 295.426 172.867C297.476 177.354 298.533 182.164 298.535 187.022L257.786 187.038L257.767 150.045Z"/>
</mask>
<path d="M257.767 150.045C263.118 150.043 268.417 150.998 273.362 152.855C278.307 154.712 282.801 157.435 286.587 160.869C290.372 164.302 293.376 168.379 295.426 172.867C297.476 177.354 298.533 182.164 298.535 187.022L257.786 187.038L257.767 150.045Z" fill="#3F3398" stroke-width="2" mask="url(#path-17-inside-13_171_47)"/>
<path d="M331.759 113.543C338.552 113.543 344.06 119.05 344.06 125.843V149.544H312.811C306.018 149.544 300.511 144.037 300.511 137.244V113.543H331.759Z" fill="#3F3398"/>
<path d="M31.748 113.543C38.5411 113.543 44.0487 119.05 44.0488 125.843V149.544H12.7998C6.00694 149.544 0.500227 144.037 0.5 137.244V113.543H31.748Z" fill="#9E9EC6"/>
<path d="M300.511 162.857C300.511 156.065 306.018 150.558 312.811 150.558H344.06V174.259C344.06 181.052 338.552 186.559 331.759 186.559H300.511V162.857Z" fill="#000064"/>
<path d="M0.5 162.857C0.500231 156.065 6.00693 150.558 12.7998 150.558H44.0488V174.259C44.0487 181.052 38.5411 186.559 31.748 186.559H0.5L0.5 162.857Z" fill="#000064"/>
<mask id="path-22-inside-14_171_47" fill="white">
<path d="M213.394 187.043C202.892 187.043 192.82 183.145 185.394 176.206C177.968 169.267 173.796 159.856 173.796 150.043C173.796 140.229 177.968 130.818 185.394 123.879C192.82 116.94 202.892 113.042 213.394 113.042L213.394 150.043L213.394 187.043Z"/>
</mask>
<path d="M213.394 187.043C202.892 187.043 192.82 183.145 185.394 176.206C177.968 169.267 173.796 159.856 173.796 150.043C173.796 140.229 177.968 130.818 185.394 123.879C192.82 116.94 202.892 113.042 213.394 113.042L213.394 150.043L213.394 187.043Z" fill="#0E0076" stroke-width="2" mask="url(#path-22-inside-14_171_47)"/>
<mask id="path-23-inside-15_171_47" fill="white">
<path d="M89.6495 187.043C94.8496 187.043 99.9989 186.086 104.803 184.227C109.608 182.367 113.973 179.642 117.65 176.206C121.327 172.77 124.244 168.691 126.234 164.202C128.224 159.713 129.248 154.902 129.248 150.043L89.6495 150.043L89.6495 187.043Z"/>
</mask>
<path d="M89.6495 187.043C94.8496 187.043 99.9989 186.086 104.803 184.227C109.608 182.367 113.973 179.642 117.65 176.206C121.327 172.77 124.244 168.691 126.234 164.202C128.224 159.713 129.248 154.902 129.248 150.043L89.6495 150.043L89.6495 187.043Z" fill="#9E9EC6" stroke-width="2" mask="url(#path-23-inside-15_171_47)"/>
<mask id="path-24-inside-16_171_47" fill="white">
<path d="M129.223 150.125C124.044 150.14 118.913 149.198 114.121 147.352C109.33 145.507 104.973 142.795 101.298 139.37C97.6233 135.945 94.7035 131.876 92.7051 127.393C90.7067 122.911 89.6689 118.103 89.6509 113.245L129.086 113.133L129.223 150.125Z"/>
</mask>
<path d="M129.223 150.125C124.044 150.14 118.913 149.198 114.121 147.352C109.33 145.507 104.973 142.795 101.298 139.37C97.6233 135.945 94.7035 131.876 92.7051 127.393C90.7067 122.911 89.6689 118.103 89.6509 113.245L129.086 113.133L129.223 150.125Z" fill="#0E0076" stroke-width="2" mask="url(#path-24-inside-16_171_47)"/>
<mask id="path-25-inside-17_171_47" fill="white">
<path d="M129.247 150.015C129.247 145.441 130.335 140.913 132.449 136.688C134.564 132.463 137.663 128.624 141.57 125.39C145.477 122.156 150.115 119.591 155.219 117.841C160.324 116.091 165.795 115.19 171.32 115.19L171.32 150.015H129.247Z"/>
</mask>
<path d="M129.247 150.015C129.247 145.441 130.335 140.913 132.449 136.688C134.564 132.463 137.663 128.624 141.57 125.39C145.477 122.156 150.115 119.591 155.219 117.841C160.324 116.091 165.795 115.19 171.32 115.19L171.32 150.015H129.247Z" fill="#9E9EC6" stroke-width="2" mask="url(#path-25-inside-17_171_47)"/>
<mask id="path-26-inside-18_171_47" fill="white">
<path d="M129.236 150.044C134.436 150.044 139.585 151.001 144.39 152.861C149.194 154.72 153.559 157.446 157.236 160.882C160.913 164.317 163.83 168.396 165.82 172.886C167.81 177.375 168.834 182.186 168.834 187.045L129.236 187.045V150.044Z"/>
</mask>
<path d="M129.236 150.044C134.436 150.044 139.585 151.001 144.39 152.861C149.194 154.72 153.559 157.446 157.236 160.882C160.913 164.317 163.83 168.396 165.82 172.886C167.81 177.375 168.834 182.186 168.834 187.045L129.236 187.045V150.044Z" fill="#0E0076" stroke-width="2" mask="url(#path-26-inside-18_171_47)"/>
</g>
</svg>
