<svg width="344" height="150" viewBox="0 0 344 150" fill="none" xmlns="http://www.w3.org/2000/svg" xmlns:xlink="http://www.w3.org/1999/xlink">
<g clip-path="url(#clip0_211_43)">
<g opacity="0.8">
<mask id="path-1-inside-1_211_43" fill="white">
<path d="M47.5738 74.0122C58.076 74.0122 68.148 70.1139 75.5742 63.1749C83.0004 56.236 87.1724 46.8247 87.1724 37.0115C87.1724 27.1982 83.0004 17.787 75.5742 10.848C68.148 3.90898 58.076 0.0106979 47.5738 0.0106964L47.5738 37.0115L47.5738 74.0122Z"/>
</mask>
<path d="M47.5738 74.0122C58.076 74.0122 68.148 70.1139 75.5742 63.1749C83.0004 56.236 87.1724 46.8247 87.1724 37.0115C87.1724 27.1982 83.0004 17.787 75.5742 10.848C68.148 3.90898 58.076 0.0106979 47.5738 0.0106964L47.5738 37.0115L47.5738 74.0122Z" fill="#3F3398" stroke-width="2" mask="url(#path-1-inside-1_211_43)"/>
<mask id="path-2-inside-2_211_43" fill="white">
<path d="M213.386 74.0122C223.888 74.0122 233.961 70.1139 241.387 63.1749C248.813 56.236 252.985 46.8247 252.985 37.0115C252.985 27.1982 248.813 17.787 241.387 10.848C233.961 3.90898 223.888 0.0106979 213.386 0.0106964L213.386 37.0115L213.386 74.0122Z"/>
</mask>
<path d="M213.386 74.0122C223.888 74.0122 233.961 70.1139 241.387 63.1749C248.813 56.236 252.985 46.8247 252.985 37.0115C252.985 27.1982 248.813 17.787 241.387 10.848C233.961 3.90898 223.888 0.0106979 213.386 0.0106964L213.386 37.0115L213.386 74.0122Z" fill="#9E9EC6" stroke-width="2" mask="url(#path-2-inside-2_211_43)"/>
<mask id="path-3-inside-3_211_43" fill="white">
<path d="M298.768 0.00993729C298.768 4.86895 297.711 9.68038 295.659 14.1695C293.607 18.6587 290.599 22.7376 286.807 26.1734C283.015 29.6093 278.513 32.3347 273.559 34.1942C268.605 36.0536 263.294 37.0107 257.932 37.0107L257.932 0.00993729H298.768Z"/>
</mask>
<path d="M298.768 0.00993729C298.768 4.86895 297.711 9.68038 295.659 14.1695C293.607 18.6587 290.599 22.7376 286.807 26.1734C283.015 29.6093 278.513 32.3347 273.559 34.1942C268.605 36.0536 263.294 37.0107 257.932 37.0107L257.932 0.00993729H298.768Z" fill="#000B3C" stroke-width="2" mask="url(#path-3-inside-3_211_43)"/>
<mask id="path-4-inside-4_211_43" fill="white">
<path d="M257.764 37.0257C263.115 37.0236 268.415 37.9783 273.359 39.8354C278.304 41.6925 282.798 44.4156 286.584 47.8492C290.37 51.2828 293.373 55.3597 295.423 59.8471C297.473 64.3344 298.53 69.1444 298.532 74.0023L257.783 74.0184L257.764 37.0257Z"/>
</mask>
<path d="M257.764 37.0257C263.115 37.0236 268.415 37.9783 273.359 39.8354C278.304 41.6925 282.798 44.4156 286.584 47.8492C290.37 51.2828 293.373 55.3597 295.423 59.8471C297.473 64.3344 298.53 69.1444 298.532 74.0023L257.783 74.0184L257.764 37.0257Z" fill="#3F3398" stroke-width="2" mask="url(#path-4-inside-4_211_43)"/>
<path d="M331.756 0.511719C338.549 0.511719 344.057 6.01851 344.057 12.8115V36.5127H312.808C306.015 36.5126 300.508 31.0057 300.508 24.2129V0.511719H331.756Z" fill="#3F3398"/>
<path d="M31.748 0.511719C38.5411 0.511719 44.0487 6.01851 44.0488 12.8115V36.5127H12.7998C6.00693 36.5126 0.500223 31.0057 0.5 24.2129V0.511719H31.748Z" fill="#9E9EC6"/>
<path d="M300.508 49.8301C300.508 43.0372 306.015 37.5304 312.808 37.5303H344.057V61.2314C344.057 68.0245 338.549 73.5312 331.756 73.5312H300.508V49.8301Z" fill="#000064"/>
<path d="M0.5 49.8301C0.500229 43.0372 6.00693 37.5304 12.7998 37.5303H44.0488V61.2314C44.0487 68.0245 38.5411 73.5312 31.748 73.5312H0.5L0.5 49.8301Z" fill="#000064"/>
<mask id="path-9-inside-5_211_43" fill="white">
<path d="M213.386 74.0122C202.884 74.0122 192.812 70.1139 185.386 63.1749C177.96 56.236 173.788 46.8247 173.788 37.0115C173.788 27.1982 177.96 17.787 185.386 10.848C192.812 3.90898 202.884 0.0106979 213.386 0.0106964L213.386 37.0115L213.386 74.0122Z"/>
</mask>
<path d="M213.386 74.0122C202.884 74.0122 192.812 70.1139 185.386 63.1749C177.96 56.236 173.788 46.8247 173.788 37.0115C173.788 27.1982 177.96 17.787 185.386 10.848C192.812 3.90898 202.884 0.0106979 213.386 0.0106964L213.386 37.0115L213.386 74.0122Z" fill="#0E0076" stroke-width="2" mask="url(#path-9-inside-5_211_43)"/>
<mask id="path-10-inside-6_211_43" fill="white">
<path d="M89.6461 74.0122C94.8462 74.0122 99.9955 73.0552 104.8 71.1957C109.604 69.3362 113.969 66.6108 117.646 63.1749C121.324 59.7391 124.24 55.6602 126.23 51.171C128.22 46.6819 129.245 41.8705 129.245 37.0115L89.6461 37.0115L89.6461 74.0122Z"/>
</mask>
<path d="M89.6461 74.0122C94.8462 74.0122 99.9955 73.0552 104.8 71.1957C109.604 69.3362 113.969 66.6108 117.646 63.1749C121.324 59.7391 124.24 55.6602 126.23 51.171C128.22 46.6819 129.245 41.8705 129.245 37.0115L89.6461 37.0115L89.6461 74.0122Z" fill="#9E9EC6" stroke-width="2" mask="url(#path-10-inside-6_211_43)"/>
<mask id="path-11-inside-7_211_43" fill="white">
<path d="M129.219 37.0978C124.041 37.1127 118.909 36.1705 114.118 34.3251C109.326 32.4797 104.969 29.7673 101.295 26.3427C97.6199 22.9181 94.7001 18.8484 92.7017 14.3659C90.7033 9.88345 89.6655 5.076 89.6475 0.218075L129.083 0.105306L129.219 37.0978Z"/>
</mask>
<path d="M129.219 37.0978C124.041 37.1127 118.909 36.1705 114.118 34.3251C109.326 32.4797 104.969 29.7673 101.295 26.3427C97.6199 22.9181 94.7001 18.8484 92.7017 14.3659C90.7033 9.88345 89.6655 5.076 89.6475 0.218075L129.083 0.105306L129.219 37.0978Z" fill="#0E0076" stroke-width="2" mask="url(#path-11-inside-7_211_43)"/>
<mask id="path-12-inside-8_211_43" fill="white">
<path d="M129.243 36.9834C129.243 32.4102 130.331 27.8818 132.445 23.6567C134.56 19.4317 137.659 15.5927 141.566 12.3589C145.473 9.12519 150.111 6.56006 155.215 4.80997C160.32 3.05989 165.791 2.15913 171.316 2.15913L171.316 36.9834L129.243 36.9834Z"/>
</mask>
<path d="M129.243 36.9834C129.243 32.4102 130.331 27.8818 132.445 23.6567C134.56 19.4317 137.659 15.5927 141.566 12.3589C145.473 9.12519 150.111 6.56006 155.215 4.80997C160.32 3.05989 165.791 2.15913 171.316 2.15913L171.316 36.9834L129.243 36.9834Z" fill="#9E9EC6" stroke-width="2" mask="url(#path-12-inside-8_211_43)"/>
<mask id="path-13-inside-9_211_43" fill="white">
<path d="M129.233 37.0248C134.434 37.0248 139.583 37.9819 144.387 39.8413C149.191 41.7008 153.557 44.4262 157.234 47.8621C160.911 51.2979 163.828 55.3768 165.818 59.866C167.808 64.3551 168.832 69.1666 168.832 74.0256L129.233 74.0256V37.0248Z"/>
</mask>
<path d="M129.233 37.0248C134.434 37.0248 139.583 37.9819 144.387 39.8413C149.191 41.7008 153.557 44.4262 157.234 47.8621C160.911 51.2979 163.828 55.3768 165.818 59.866C167.808 64.3551 168.832 69.1666 168.832 74.0256L129.233 74.0256V37.0248Z" fill="#0E0076" stroke-width="2" mask="url(#path-13-inside-9_211_43)"/>
</g>
<g opacity="0.8">
<mask id="path-14-inside-10_211_43" fill="white">
<path d="M47.5767 150.043C58.0789 150.043 68.151 146.145 75.5771 139.206C83.0033 132.267 87.1753 122.856 87.1753 113.043C87.1753 103.229 83.0033 93.8182 75.5771 86.8792C68.151 79.9402 58.0789 76.0419 47.5767 76.0419L47.5767 113.043L47.5767 150.043Z"/>
</mask>
<path d="M47.5767 150.043C58.0789 150.043 68.151 146.145 75.5771 139.206C83.0033 132.267 87.1753 122.856 87.1753 113.043C87.1753 103.229 83.0033 93.8182 75.5771 86.8792C68.151 79.9402 58.0789 76.0419 47.5767 76.0419L47.5767 113.043L47.5767 150.043Z" fill="#3F3398" stroke-width="2" mask="url(#path-14-inside-10_211_43)"/>
<mask id="path-15-inside-11_211_43" fill="white">
<path d="M213.394 150.043C223.896 150.043 233.968 146.145 241.395 139.206C248.821 132.267 252.993 122.856 252.993 113.043C252.993 103.229 248.821 93.8182 241.395 86.8792C233.968 79.9402 223.896 76.0419 213.394 76.0419L213.394 113.043L213.394 150.043Z"/>
</mask>
<path d="M213.394 150.043C223.896 150.043 233.968 146.145 241.395 139.206C248.821 132.267 252.993 122.856 252.993 113.043C252.993 103.229 248.821 93.8182 241.395 86.8792C233.968 79.9402 223.896 76.0419 213.394 76.0419L213.394 113.043L213.394 150.043Z" fill="#9E9EC6" stroke-width="2" mask="url(#path-15-inside-11_211_43)"/>
<mask id="path-16-inside-12_211_43" fill="white">
<path d="M298.772 76.0373C298.772 80.8963 297.715 85.7077 295.663 90.1969C293.611 94.686 290.603 98.7649 286.811 102.201C283.019 105.637 278.517 108.362 273.563 110.222C268.608 112.081 263.298 113.038 257.936 113.038L257.936 76.0373H298.772Z"/>
</mask>
<path d="M298.772 76.0373C298.772 80.8963 297.715 85.7077 295.663 90.1969C293.611 94.686 290.603 98.7649 286.811 102.201C283.019 105.637 278.517 108.362 273.563 110.222C268.608 112.081 263.298 113.038 257.936 113.038L257.936 76.0373H298.772Z" fill="#000B3C" stroke-width="2" mask="url(#path-16-inside-12_211_43)"/>
<mask id="path-17-inside-13_211_43" fill="white">
<path d="M257.767 113.045C263.118 113.043 268.417 113.998 273.362 115.855C278.307 117.712 282.801 120.435 286.587 123.869C290.372 127.302 293.376 131.379 295.426 135.867C297.476 140.354 298.533 145.164 298.535 150.022L257.786 150.038L257.767 113.045Z"/>
</mask>
<path d="M257.767 113.045C263.118 113.043 268.417 113.998 273.362 115.855C278.307 117.712 282.801 120.435 286.587 123.869C290.372 127.302 293.376 131.379 295.426 135.867C297.476 140.354 298.533 145.164 298.535 150.022L257.786 150.038L257.767 113.045Z" fill="#3F3398" stroke-width="2" mask="url(#path-17-inside-13_211_43)"/>
<path d="M331.759 76.543C338.552 76.543 344.06 82.0498 344.06 88.8428V112.544H312.811C306.018 112.544 300.511 107.037 300.511 100.244V76.543H331.759Z" fill="#3F3398"/>
<path d="M31.748 76.543C38.5411 76.543 44.0487 82.0498 44.0488 88.8428V112.544H12.7998C6.00694 112.544 0.500227 107.037 0.5 100.244V76.543H31.748Z" fill="#9E9EC6"/>
<path d="M300.511 125.857C300.511 119.065 306.018 113.558 312.811 113.558H344.06V137.259C344.06 144.052 338.552 149.559 331.759 149.559H300.511V125.857Z" fill="#000064"/>
<path d="M0.5 125.857C0.500231 119.065 6.00693 113.558 12.7998 113.558H44.0488V137.259C44.0487 144.052 38.5411 149.559 31.748 149.559H0.5L0.5 125.857Z" fill="#000064"/>
<mask id="path-22-inside-14_211_43" fill="white">
<path d="M213.394 150.043C202.892 150.043 192.82 146.145 185.394 139.206C177.968 132.267 173.796 122.856 173.796 113.043C173.796 103.229 177.968 93.8182 185.394 86.8792C192.82 79.9402 202.892 76.0419 213.394 76.0419L213.394 113.043L213.394 150.043Z"/>
</mask>
<path d="M213.394 150.043C202.892 150.043 192.82 146.145 185.394 139.206C177.968 132.267 173.796 122.856 173.796 113.043C173.796 103.229 177.968 93.8182 185.394 86.8792C192.82 79.9402 202.892 76.0419 213.394 76.0419L213.394 113.043L213.394 150.043Z" fill="#0E0076" stroke-width="2" mask="url(#path-22-inside-14_211_43)"/>
<mask id="path-23-inside-15_211_43" fill="white">
<path d="M89.6495 150.043C94.8496 150.043 99.9989 149.086 104.803 147.227C109.608 145.367 113.973 142.642 117.65 139.206C121.327 135.77 124.244 131.691 126.234 127.202C128.224 122.713 129.248 117.902 129.248 113.043L89.6495 113.043L89.6495 150.043Z"/>
</mask>
<path d="M89.6495 150.043C94.8496 150.043 99.9989 149.086 104.803 147.227C109.608 145.367 113.973 142.642 117.65 139.206C121.327 135.77 124.244 131.691 126.234 127.202C128.224 122.713 129.248 117.902 129.248 113.043L89.6495 113.043L89.6495 150.043Z" fill="#9E9EC6" stroke-width="2" mask="url(#path-23-inside-15_211_43)"/>
<mask id="path-24-inside-16_211_43" fill="white">
<path d="M129.223 113.125C124.044 113.14 118.913 112.198 114.121 110.352C109.33 108.507 104.973 105.795 101.298 102.37C97.6233 98.9455 94.7035 94.8757 92.7051 90.3933C90.7067 85.9108 89.6689 81.1033 89.6509 76.2454L129.086 76.1326L129.223 113.125Z"/>
</mask>
<path d="M129.223 113.125C124.044 113.14 118.913 112.198 114.121 110.352C109.33 108.507 104.973 105.795 101.298 102.37C97.6233 98.9455 94.7035 94.8757 92.7051 90.3933C90.7067 85.9108 89.6689 81.1033 89.6509 76.2454L129.086 76.1326L129.223 113.125Z" fill="#0E0076" stroke-width="2" mask="url(#path-24-inside-16_211_43)"/>
<mask id="path-25-inside-17_211_43" fill="white">
<path d="M129.247 113.015C129.247 108.441 130.335 103.913 132.449 99.688C134.564 95.4629 137.663 91.6239 141.57 88.3902C145.477 85.1564 150.115 82.5913 155.219 80.8412C160.324 79.0911 165.795 78.1904 171.32 78.1904L171.32 113.015H129.247Z"/>
</mask>
<path d="M129.247 113.015C129.247 108.441 130.335 103.913 132.449 99.688C134.564 95.4629 137.663 91.6239 141.57 88.3902C145.477 85.1564 150.115 82.5913 155.219 80.8412C160.324 79.0911 165.795 78.1904 171.32 78.1904L171.32 113.015H129.247Z" fill="#9E9EC6" stroke-width="2" mask="url(#path-25-inside-17_211_43)"/>
<mask id="path-26-inside-18_211_43" fill="white">
<path d="M129.236 113.044C134.436 113.044 139.585 114.001 144.39 115.861C149.194 117.72 153.559 120.446 157.236 123.882C160.913 127.317 163.83 131.396 165.82 135.886C167.81 140.375 168.834 145.186 168.834 150.045L129.236 150.045V113.044Z"/>
</mask>
<path d="M129.236 113.044C134.436 113.044 139.585 114.001 144.39 115.861C149.194 117.72 153.559 120.446 157.236 123.882C160.913 127.317 163.83 131.396 165.82 135.886C167.81 140.375 168.834 145.186 168.834 150.045L129.236 150.045V113.044Z" fill="#0E0076" stroke-width="2" mask="url(#path-26-inside-18_211_43)"/>
</g>
</g>
<defs>
<clipPath id="clip0_211_43">
<rect width="344" height="150" fill="white"/>
</clipPath>
</defs>
</svg>
